<svg width="80" height="52" viewBox="0 0 80 52" fill="none" xmlns="http://www.w3.org/2000/svg">
<g clip-path="url(#clip0_400_20)">
<path d="M73.8234 1.35071H6.17667C3.56146 1.35071 1.44141 3.33151 1.44141 5.77495V46.2252C1.44141 48.6686 3.56146 50.6494 6.17667 50.6494H73.8234C76.4382 50.6494 78.5585 48.6686 78.5585 46.2252V5.77495C78.5585 3.33151 76.4382 1.35071 73.8234 1.35071Z" fill="white" stroke="#F3F3F3" stroke-width="3"/>
<path d="M35.1477 35.7922H30.2703L33.321 18.2338H38.1982L35.1477 35.7922Z" fill="#15195A"/>
<path d="M54.7748 18.31C53.6848 17.9528 51.9561 17.5585 49.8185 17.5585C44.3613 17.5585 40.5185 19.9619 40.4948 23.3979C40.4494 25.933 43.2462 27.3412 45.338 28.1865C47.4758 29.0503 48.2026 29.614 48.2026 30.384C48.1809 31.5665 46.4751 32.1115 44.884 32.1115C42.6777 32.1115 41.4957 31.8305 39.6991 31.1727L38.9716 30.8907L38.1982 34.8528C39.4944 35.3404 41.8822 35.7732 44.3613 35.7922C50.1596 35.7922 53.9345 33.426 53.9791 29.7644C54.0012 27.755 52.5244 26.2153 49.3407 24.9573C47.4078 24.1496 46.2242 23.6051 46.2242 22.7788C46.247 22.0275 47.2254 21.2581 49.4072 21.2581C51.2036 21.2204 52.5236 21.5771 53.5235 21.934L54.0233 22.1214L54.7748 18.31Z" fill="#15195A"/>
<path fill-rule="evenodd" clip-rule="evenodd" d="M63.8196 18.2338H67.8589L72.072 35.7922H67.2367C67.2367 35.7922 66.7634 33.7748 66.6136 33.1583H59.9087C59.7149 33.6251 58.8127 35.7922 58.8127 35.7922H53.3333L61.0901 19.6906C61.6275 18.551 62.574 18.2338 63.8196 18.2338ZM63.4977 24.6593C63.4977 24.6593 61.8429 28.5633 61.4128 29.572H65.7535C65.5388 28.6942 64.5498 24.4911 64.5498 24.4911L64.1849 22.9783C64.0311 23.3678 63.8089 23.9035 63.6589 24.2648C63.5574 24.5096 63.489 24.6743 63.4977 24.6593Z" fill="#15195A"/>
<path fill-rule="evenodd" clip-rule="evenodd" d="M7.2929 18.2338H15.6633C16.798 18.2708 17.7187 18.5886 18.0182 19.7113L19.8373 27.7872L19.8379 27.7888L20.3946 30.2196L25.4897 18.2338H30.9911L22.8134 35.7922H17.3118L12.6747 20.5193C11.0748 19.7021 9.24879 19.0449 7.20728 18.5889L7.2929 18.2338Z" fill="#15195A"/>
</g>
<defs>
<clipPath id="clip0_400_20">
<rect width="80" height="52" fill="white"/>
</clipPath>
</defs>
</svg>
